{"accessors":[{"bufferView":0,"componentType":5126,"count":259530,"max":[2130.034423828125,-3975.68408203125,989.8132934570313],"min":[1530.519287109375,-4797.087890625,323.4824523925781],"type":"VEC3"},{"bufferView":1,"componentType":5126,"count":259530,"type":"VEC3"},{"bufferView":2,"componentType":5126,"count":259530,"type":"VEC2"},{"bufferView":3,"componentType":5125,"count":259530,"type":"SCALAR"},{"bufferView":4,"componentType":5126,"count":38508,"max":[2239.5380859375,-4242.44091796875,605.39111328125],"min":[2129.431884765625,-4654.77978515625,580.9095458984375],"type":"VEC3"},{"bufferView":5,"componentType":5126,"count":38508,"type":"VEC3"},{"bufferView":6,"componentType":5126,"count":38508,"type":"VEC2"},{"bufferView":7,"componentType":5125,"count":38508,"type":"SCALAR"},{"bufferView":8,"componentType":5126,"count":38514,"max":[1531.119873046875,-4242.44091796875,605.39111328125],"min":[1421.0135498046875,-4654.77978515625,580.9095458984375],"type":"VEC3"},{"bufferView":9,"componentType":5126,"count":38514,"type":"VEC3"},{"bufferView":10,"componentType":5126,"count":38514,"type":"VEC2"},{"bufferView":11,"componentType":5125,"count":38514,"type":"SCALAR"},{"bufferView":12,"componentType":5126,"count":43791,"max":[2127.887939453125,-3980.901123046875,989.959228515625],"min":[1532.65869140625,-4203.5009765625,387.3484191894531],"type":"VEC3"},{"bufferView":13,"componentType":5126,"count":43791,"type":"VEC3"},{"bufferView":14,"componentType":5126,"count":43791,"type":"VEC2"},{"bufferView":15,"componentType":5125,"count":43791,"type":"SCALAR"},{"bufferView":16,"componentType":5126,"count":93783,"max":[2127.889892578125,-3980.89404296875,990.6880493164063],"min":[1532.65869140625,-4215.2314453125,387.3485107421875],"type":"VEC3"},{"bufferView":17,"componentType":5126,"count":93783,"type":"VEC3"},{"bufferView":18,"componentType":5126,"count":93783,"type":"VEC2"},{"bufferView":19,"componentType":5125,"count":93783,"type":"SCALAR"},{"bufferView":20,"componentType":5126,"count":216450,"max":[2128.484619140625,-4288.93408203125,403.20709228515625],"min":[1532.6080322265625,-4797.294921875,329.7549743652344],"type":"VEC3"},{"bufferView":21,"componentType":5126,"count":216450,"type":"VEC3"},{"bufferView":22,"componentType":5126,"count":216450,"type":"VEC2"},{"bufferView":23,"componentType":5125,"count":216450,"type":"SCALAR"},{"bufferView":24,"componentType":5126,"count":101319,"max":[2239.540771484375,-4183.26806640625,580.9095458984375],"min":[1421.0096435546875,-4822.76318359375,-75.58403778076172],"type":"VEC3"},{"bufferView":25,"componentType":5126,"count":101319,"type":"VEC3"},{"bufferView":26,"componentType":5125,"count":479382,"type":"SCALAR"}],"asset":{"generator":"Luxion KeyShot","version":"2.0"},"bufferViews":[{"buffer":0,"byteLength":3114360,"byteOffset":0,"byteStride":12},{"buffer":0,"byteLength":3114360,"byteOffset":3114360,"byteStride":12},{"buffer":0,"byteLength":2076240,"byteOffset":6228720,"byteStride":8},{"buffer":0,"byteLength":1038120,"byteOffset":8304960},{"buffer":0,"byteLength":462096,"byteOffset":9343080,"byteStride":12},{"buffer":0,"byteLength":462096,"byteOffset":9805176,"byteStride":12},{"buffer":0,"byteLength":308064,"byteOffset":10267272,"byteStride":8},{"buffer":0,"byteLength":154032,"byteOffset":10575336},{"buffer":0,"byteLength":462168,"byteOffset":10729368,"byteStride":12},{"buffer":0,"byteLength":462168,"byteOffset":11191536,"byteStride":12},{"buffer":0,"byteLength":308112,"byteOffset":11653704,"byteStride":8},{"buffer":0,"byteLength":154056,"byteOffset":11961816},{"buffer":0,"byteLength":525492,"byteOffset":12115872,"byteStride":12},{"buffer":0,"byteLength":525492,"byteOffset":12641364,"byteStride":12},{"buffer":0,"byteLength":350328,"byteOffset":13166856,"byteStride":8},{"buffer":0,"byteLength":175164,"byteOffset":13517184},{"buffer":0,"byteLength":1125396,"byteOffset":13692348,"byteStride":12},{"buffer":0,"byteLength":1125396,"byteOffset":14817744,"byteStride":12},{"buffer":0,"byteLength":750264,"byteOffset":15943140,"byteStride":8},{"buffer":0,"byteLength":375132,"byteOffset":16693404},{"buffer":0,"byteLength":2597400,"byteOffset":17068536,"byteStride":12},{"buffer":0,"byteLength":2597400,"byteOffset":19665936,"byteStride":12},{"buffer":0,"byteLength":1731600,"byteOffset":22263336,"byteStride":8},{"buffer":0,"byteLength":865800,"byteOffset":23994936},{"buffer":0,"byteLength":1215828,"byteOffset":24860736,"byteStride":12},{"buffer":0,"byteLength":1215828,"byteOffset":26076564,"byteStride":12},{"buffer":0,"byteLength":1917528,"byteOffset":27292392}],"buffers":[{"byteLength":29209920,"uri":"./chair_resources 3/chair.bin"}],"cameras":[{"name":"active","perspective":{"aspectRatio":1.0,"yfov":0.6911154697478635,"zfar":12.6393404006958,"znear":1.4213380813598633},"type":"perspective"}],"images":[{"uri":"./chair_resources 3/color_128_128_128_4_normal.png"},{"uri":"./chair_resources 3/color_128_128_128_4_color.png"},{"uri":"./chair_resources 3/color_128_128_128_4_roughness_metalness.png"},{"uri":"./chair_resources 3/color_128_128_128_6_normal.png"},{"uri":"./chair_resources 3/color_128_128_128_6_color.png"},{"uri":"./chair_resources 3/color_128_128_128_6_roughness_metalness.png"},{"uri":"./chair_resources 3/color_128_128_128_8_normal.png"},{"uri":"./chair_resources 3/color_128_128_128_8_color.png"},{"uri":"./chair_resources 3/color_128_128_128_8_roughness_metalness.png"},{"uri":"./chair_resources 3/color_128_128_128_10_normal.png"},{"uri":"./chair_resources 3/color_128_128_128_10_color.png"},{"uri":"./chair_resources 3/color_128_128_128_10_roughness_metalness.png"},{"uri":"./chair_resources 3/color_128_128_128_12_normal.png"},{"uri":"./chair_resources 3/color_128_128_128_12_color.png"},{"uri":"./chair_resources 3/color_128_128_128_12_roughness_metalness.png"},{"uri":"./chair_resources 3/color_128_128_128_14_normal.png"},{"uri":"./chair_resources 3/color_128_128_128_14_color.png"},{"uri":"./chair_resources 3/color_128_128_128_14_roughness_metalness.png"}],"materials":[{"doubleSided":true,"normalTexture":{"index":0,"scale":-1},"pbrMetallicRoughness":{"baseColorTexture":{"index":1},"metallicRoughnessTexture":{"index":2}}},{"doubleSided":true,"normalTexture":{"index":3,"scale":-1},"pbrMetallicRoughness":{"baseColorTexture":{"index":4},"metallicRoughnessTexture":{"index":5}}},{"doubleSided":true,"normalTexture":{"index":6,"scale":-1},"pbrMetallicRoughness":{"baseColorTexture":{"index":7},"metallicRoughnessTexture":{"index":8}}},{"doubleSided":true,"normalTexture":{"index":9,"scale":-1},"pbrMetallicRoughness":{"baseColorTexture":{"index":10},"metallicRoughnessTexture":{"index":11}}},{"doubleSided":true,"normalTexture":{"index":12,"scale":-1},"pbrMetallicRoughness":{"baseColorTexture":{"index":13},"metallicRoughnessTexture":{"index":14}}},{"doubleSided":true,"normalTexture":{"index":15,"scale":-1},"pbrMetallicRoughness":{"baseColorTexture":{"index":16},"metallicRoughnessTexture":{"index":17}}},{"doubleSided":true,"pbrMetallicRoughness":{"baseColorFactor":[0.0011126603931188583,0.0011126603931188583,0.0011126603931188583,1.0],"metallicFactor":0.0,"roughnessFactor":0.3872983455657959}}],"meshes":[{"name":"color:128:128:128-mesh","primitives":[{"attributes":{"NORMAL":1,"POSITION":0,"TEXCOORD_0":2},"indices":3,"material":0,"mode":4}]},{"name":"color:128:128:128-mesh","primitives":[{"attributes":{"NORMAL":5,"POSITION":4,"TEXCOORD_0":6},"indices":7,"material":1,"mode":4}]},{"name":"color:128:128:128-mesh","primitives":[{"attributes":{"NORMAL":9,"POSITION":8,"TEXCOORD_0":10},"indices":11,"material":2,"mode":4}]},{"name":"color:128:128:128-mesh","primitives":[{"attributes":{"NORMAL":13,"POSITION":12,"TEXCOORD_0":14},"indices":15,"material":3,"mode":4}]},{"name":"color:128:128:128-mesh","primitives":[{"attributes":{"NORMAL":17,"POSITION":16,"TEXCOORD_0":18},"indices":19,"material":4,"mode":4}]},{"name":"color:128:128:128-mesh","primitives":[{"attributes":{"NORMAL":21,"POSITION":20,"TEXCOORD_0":22},"indices":23,"material":5,"mode":4}]},{"name":"color:128:128:128-mesh","primitives":[{"attributes":{"NORMAL":25,"POSITION":24},"indices":26,"material":6,"mode":4}]}],"nodes":[{"camera":0,"matrix":[0.7660444257125132,-1.7316120981547556e-07,0.6427876168189162,0.0,0.16636580437561752,0.9659258220984632,-0.19826677813262727,0.0,-0.6208851337432861,0.258819043636322,0.7399421334266663,0.0,-1.3205119371414185,1.0841295719146729,1.5737239122390747,1.0],"name":"active"},{"mesh":0,"name":"color:128:128:128"},{"mesh":1,"name":"color:128:128:128"},{"mesh":2,"name":"color:128:128:128"},{"mesh":3,"name":"color:128:128:128"},{"mesh":4,"name":"color:128:128:128"},{"mesh":5,"name":"color:128:128:128"},{"mesh":6,"name":"color:128:128:128"},{"children":[1,2,3,4,5,6,7],"matrix":[-0.0010000000474974513,-9.000009765225414e-11,1.3712199431470393e-10,0.0,1.3712199431470398e-10,4.050009868728553e-18,0.0010000000474974513,0.0,-9.000009765225414e-11,0.0010000000474974513,8.290960319794553e-18,0.0,1.8302719229829782,0.0761173790303994,4.399227206825959,1.0],"name":"Conference Room Chair"},{"children":[8],"name":"Default"},{"children":[9],"name":"lux_root"}],"samplers":[{"magFilter":9729,"minFilter":9987,"wrapS":10497,"wrapT":10497},{"magFilter":9729,"minFilter":9987,"wrapS":10497,"wrapT":10497},{"magFilter":9729,"minFilter":9987,"wrapS":10497,"wrapT":10497},{"magFilter":9729,"minFilter":9987,"wrapS":10497,"wrapT":10497},{"magFilter":9729,"minFilter":9987,"wrapS":10497,"wrapT":10497},{"magFilter":9729,"minFilter":9987,"wrapS":10497,"wrapT":10497},{"magFilter":9729,"minFilter":9987,"wrapS":10497,"wrapT":10497},{"magFilter":9729,"minFilter":9987,"wrapS":10497,"wrapT":10497},{"magFilter":9729,"minFilter":9987,"wrapS":10497,"wrapT":10497},{"magFilter":9729,"minFilter":9987,"wrapS":10497,"wrapT":10497},{"magFilter":9729,"minFilter":9987,"wrapS":10497,"wrapT":10497},{"magFilter":9729,"minFilter":9987,"wrapS":10497,"wrapT":10497},{"magFilter":9729,"minFilter":9987,"wrapS":10497,"wrapT":10497},{"magFilter":9729,"minFilter":9987,"wrapS":10497,"wrapT":10497},{"magFilter":9729,"minFilter":9987,"wrapS":10497,"wrapT":10497},{"magFilter":9729,"minFilter":9987,"wrapS":10497,"wrapT":10497},{"magFilter":9729,"minFilter":9987,"wrapS":10497,"wrapT":10497},{"magFilter":9729,"minFilter":9987,"wrapS":10497,"wrapT":10497}],"scenes":[{"nodes":[0,10]}],"textures":[{"sampler":0,"source":0},{"sampler":1,"source":1},{"sampler":2,"source":2},{"sampler":3,"source":3},{"sampler":4,"source":4},{"sampler":5,"source":5},{"sampler":6,"source":6},{"sampler":7,"source":7},{"sampler":8,"source":8},{"sampler":9,"source":9},{"sampler":10,"source":10},{"sampler":11,"source":11},{"sampler":12,"source":12},{"sampler":13,"source":13},{"sampler":14,"source":14},{"sampler":15,"source":15},{"sampler":16,"source":16},{"sampler":17,"source":17}]}  